<svg width="25" height="25" viewBox="0 0 25 25" fill="none" xmlns="http://www.w3.org/2000/svg">
<rect width="24" height="24" transform="translate(0.6875 0.298828)" fill="white"/>
<path d="M11.2875 14.0988L9.1375 11.9488C8.95417 11.7655 8.72083 11.6738 8.4375 11.6738C8.15417 11.6738 7.92084 11.7655 7.7375 11.9488C7.55417 12.1322 7.4625 12.3655 7.4625 12.6488C7.4625 12.9322 7.55417 13.1655 7.7375 13.3488L10.5875 16.1988C10.7875 16.3988 11.0208 16.4988 11.2875 16.4988C11.5542 16.4988 11.7875 16.3988 11.9875 16.1988L17.6375 10.5488C17.8208 10.3655 17.9125 10.1322 17.9125 9.84883C17.9125 9.5655 17.8208 9.33216 17.6375 9.14883C17.4542 8.9655 17.2208 8.87383 16.9375 8.87383C16.6542 8.87383 16.4208 8.9655 16.2375 9.14883L11.2875 14.0988ZM12.6875 22.2988C11.3042 22.2988 10.0042 22.0362 8.7875 21.5108C7.57084 20.9855 6.5125 20.2732 5.6125 19.3738C4.7125 18.4745 4.00017 17.4162 3.4755 16.1988C2.95083 14.9815 2.68817 13.6815 2.6875 12.2988C2.68683 10.9162 2.9495 9.61616 3.4755 8.39883C4.0015 7.1815 4.71383 6.12316 5.6125 5.22383C6.51117 4.32449 7.5695 3.61216 8.7875 3.08683C10.0055 2.56149 11.3055 2.29883 12.6875 2.29883C14.0695 2.29883 15.3695 2.56149 16.5875 3.08683C17.8055 3.61216 18.8638 4.32449 19.7625 5.22383C20.6612 6.12316 21.3738 7.1815 21.9005 8.39883C22.4272 9.61616 22.6895 10.9162 22.6875 12.2988C22.6855 13.6815 22.4228 14.9815 21.8995 16.1988C21.3762 17.4162 20.6638 18.4745 19.7625 19.3738C18.8612 20.2732 17.8028 20.9858 16.5875 21.5118C15.3722 22.0378 14.0722 22.3002 12.6875 22.2988ZM12.6875 20.2988C14.9208 20.2988 16.8125 19.5238 18.3625 17.9738C19.9125 16.4238 20.6875 14.5322 20.6875 12.2988C20.6875 10.0655 19.9125 8.17383 18.3625 6.62383C16.8125 5.07383 14.9208 4.29883 12.6875 4.29883C10.4542 4.29883 8.5625 5.07383 7.0125 6.62383C5.4625 8.17383 4.6875 10.0655 4.6875 12.2988C4.6875 14.5322 5.4625 16.4238 7.0125 17.9738C8.5625 19.5238 10.4542 20.2988 12.6875 20.2988Z" fill="#FFC502"/>
</svg>
