<svg width="36" height="37" viewBox="0 0 36 37" fill="none" xmlns="http://www.w3.org/2000/svg">
<path d="M18 0.839844C21.5601 0.839844 25.0402 1.89553 28.0003 3.87339C30.9604 5.85126 33.2675 8.66247 34.6298 11.9515C35.9922 15.2406 36.3487 18.8598 35.6541 22.3515C34.9596 25.8431 33.2453 29.0504 30.7279 31.5678C28.2106 34.0851 25.0033 35.7994 21.5116 36.494C18.02 37.1885 14.4008 36.8321 11.1117 35.4697C7.82263 34.1073 5.01141 31.8002 3.03355 28.8401C1.05568 25.88 0 22.3999 0 18.8398C0 14.0659 1.89642 9.48758 5.27208 6.11192C8.64773 2.73627 13.2261 0.839844 18 0.839844Z" fill="#333333"/>
<path d="M19.156 15.1959V12.5936C19.1655 12.2407 19.314 11.9059 19.5693 11.6622C19.8247 11.4185 20.166 11.2855 20.5189 11.2925H21.8817V8.04011H19.156C18.0965 8.01582 17.0706 8.41323 16.304 9.14499C15.5373 9.87675 15.0925 10.883 15.0675 11.9425V15.1959H12.3428V18.4482H15.0685V28.8553H19.1571V18.4482H21.8828L23.2456 15.1959H19.156Z" fill="white"/>
</svg>
