<svg width="27" height="28" viewBox="0 0 27 28" fill="none" xmlns="http://www.w3.org/2000/svg">
<path d="M14.5608 1.01745C11.9261 0.78308 9.28101 1.33535 6.96015 2.60439C4.63929 3.87343 2.74688 5.80224 1.52231 8.14687C0.297741 10.4915 -0.204005 13.1466 0.0805378 15.7764C0.365081 18.4062 1.42315 20.8926 3.12088 22.921C4.81861 24.9494 7.07976 26.4289 9.61835 27.1721C12.1569 27.9154 14.8589 27.889 17.3826 27.0965C19.9062 26.304 22.1381 24.781 23.7961 22.7199C25.454 20.6588 26.4635 18.1523 26.6968 15.5174C26.8521 13.7685 26.6613 12.0061 26.1355 10.3309C25.6096 8.65563 24.7589 7.10039 23.632 5.75393C22.5051 4.40747 21.1239 3.29616 19.5675 2.48348C18.011 1.6708 16.3098 1.17262 14.5608 1.01745ZM8.17084 8.03347L19.6118 9.04946C19.8351 9.06911 20.049 9.1478 20.2318 9.27746L13.6258 14.8035C13.5412 14.8734 13.4325 14.9072 13.3232 14.8974C13.2138 14.8877 13.1127 14.8352 13.0418 14.7515L7.51883 8.15145C7.72033 8.0502 7.94643 8.00824 8.17084 8.03045V8.03347ZM19.9468 19.5055C19.9292 19.6885 19.8723 19.8655 19.7798 20.0245L16.9528 16.6455C16.9215 16.6079 16.8831 16.5769 16.8398 16.5542C16.7965 16.5314 16.7491 16.5175 16.7004 16.5131C16.6517 16.5087 16.6026 16.5139 16.5559 16.5285C16.5093 16.543 16.4659 16.5666 16.4283 16.598C16.3908 16.6293 16.3598 16.6677 16.337 16.711C16.3143 16.7543 16.3004 16.8017 16.296 16.8504C16.2915 16.8991 16.2967 16.9482 16.3113 16.9949C16.3259 17.0415 16.3495 17.0849 16.3808 17.1225L19.2308 20.5295C19.0287 20.6252 18.8044 20.6642 18.5818 20.6424L7.13883 19.6265C6.91538 19.6076 6.70148 19.5273 6.52081 19.3945L9.92581 16.5495C10.0017 16.4859 10.0492 16.3949 10.0579 16.2963C10.0666 16.1978 10.0358 16.0998 9.97232 16.0239C9.9088 15.9481 9.81776 15.9006 9.71921 15.8919C9.62066 15.8831 9.52266 15.9139 9.44681 15.9775L6.06781 18.8045C6.00364 18.6321 5.97871 18.4476 5.99481 18.2645L6.80283 9.16945C6.81984 8.98618 6.87721 8.80895 6.97083 8.65047L12.4708 15.2275C12.5679 15.3444 12.6873 15.4406 12.8221 15.5107C12.957 15.5808 13.1044 15.6232 13.2558 15.6355C13.5607 15.6628 13.864 15.5686 14.0998 15.3735L20.6768 9.87346C20.741 10.0458 20.7659 10.2303 20.7498 10.4135L19.9468 19.5055Z" fill="#FFC502"/>
</svg>
