<svg width="36" height="37" viewBox="0 0 36 37" fill="none" xmlns="http://www.w3.org/2000/svg">
<path d="M18 36.8398C27.9411 36.8398 36 28.781 36 18.8398C36 8.89872 27.9411 0.839844 18 0.839844C8.05888 0.839844 0 8.89872 0 18.8398C0 28.781 8.05888 36.8398 18 36.8398Z" fill="#333333"/>
<path d="M27.4481 14.9308C27.4328 14.1434 27.2836 13.3642 27.0069 12.6268C26.7623 11.9964 26.3891 11.4238 25.9109 10.9457C25.4328 10.4675 24.8602 10.0942 24.2297 9.8497C23.4931 9.57248 22.7147 9.42223 21.9278 9.40536C20.9054 9.35702 20.5834 9.3457 18.0038 9.3457C15.4241 9.3457 15.1022 9.35702 14.089 9.40125C13.3016 9.41658 12.5225 9.5658 11.785 9.8425C11.1494 10.0808 10.5739 10.4558 10.0992 10.941C9.61705 11.4158 9.24366 11.9896 9.00482 12.6227C8.72842 13.3602 8.57922 14.1393 8.56356 14.9267C8.51522 15.944 8.50391 16.2639 8.50391 18.8456C8.50391 21.4273 8.51522 21.7472 8.55636 22.7603C8.57166 23.5478 8.72087 24.3269 8.99762 25.0643C9.2421 25.6948 9.61534 26.2674 10.0935 26.7456C10.5717 27.2238 11.1443 27.597 11.7748 27.8415C12.5123 28.1179 13.2913 28.2671 14.0788 28.2827C15.0919 28.327 15.4159 28.3383 17.9935 28.3383C20.5711 28.3383 20.8951 28.327 21.9082 28.2827C22.6957 28.2675 23.4749 28.1182 24.2122 27.8415C24.8429 27.5973 25.4157 27.2242 25.8939 26.746C26.3721 26.2678 26.7452 25.695 26.9894 25.0643C27.2657 24.3268 27.4149 23.5478 27.4307 22.7603C27.4749 21.7472 27.4862 21.4232 27.4862 18.8456C27.4862 16.268 27.4924 15.944 27.4481 14.9308ZM25.7335 22.6863C25.7273 23.2884 25.6166 23.8849 25.4064 24.4492C25.2481 24.8588 25.0059 25.2308 24.6954 25.5413C24.3849 25.8518 24.0129 26.094 23.6033 26.2523C23.0389 26.4618 22.4424 26.5721 21.8404 26.5784C20.8385 26.6226 20.5382 26.6339 18.0038 26.6339C15.4694 26.6339 15.1649 26.6226 14.1662 26.5784C13.5641 26.5725 12.9676 26.4622 12.4032 26.2523C11.9908 26.1011 11.6178 25.8589 11.3119 25.5436C10.9975 25.2371 10.7554 24.8643 10.6032 24.4523C10.3938 23.8878 10.2835 23.2914 10.2772 22.6894C10.2329 21.6875 10.2216 21.3872 10.2216 18.8528C10.2216 16.3184 10.2329 16.0139 10.2772 15.0162C10.2848 14.4142 10.3969 13.818 10.6084 13.2543C10.7597 12.8409 11.0035 12.4676 11.3212 12.163C11.6276 11.8484 12.0005 11.6063 12.4125 11.4543C12.9769 11.2445 13.5733 11.1339 14.1754 11.1272C15.1773 11.083 15.4776 11.0716 18.012 11.0716C20.5464 11.0716 20.8509 11.083 21.8496 11.1272C22.4518 11.1334 23.0483 11.2441 23.6126 11.4543C24.025 11.6054 24.398 11.8477 24.7039 12.163C25.0176 12.4697 25.259 12.8425 25.4105 13.2543C25.6188 13.8186 25.728 14.4147 25.7335 15.0162C25.7777 16.018 25.7891 16.3184 25.7891 18.8528C25.7891 21.3872 25.7819 21.6886 25.7335 22.6863Z" fill="white"/>
<path d="M18.0036 13.9668C17.0385 13.9668 16.0951 14.253 15.2926 14.7891C14.4902 15.3253 13.8648 16.0874 13.4955 16.979C13.1261 17.8706 13.0295 18.8518 13.2178 19.7983C13.4061 20.7448 13.8708 21.6143 14.5532 22.2967C15.2356 22.9791 16.1051 23.4439 17.0516 23.6321C17.9982 23.8204 18.9793 23.7238 19.8709 23.3545C20.7625 22.9851 21.5246 22.3597 22.0608 21.5573C22.5969 20.7548 22.8831 19.8114 22.8831 18.8463C22.8828 17.5523 22.3687 16.3113 21.4536 15.3963C20.5386 14.4813 19.2976 13.9671 18.0036 13.9668ZM18.0036 22.0123C17.3776 22.0123 16.7657 21.8267 16.2452 21.4789C15.7248 21.1311 15.3191 20.6368 15.0796 20.0585C14.84 19.4802 14.7774 18.8439 14.8995 18.2299C15.0216 17.616 15.323 17.0521 15.7656 16.6094C16.2083 16.1668 16.7722 15.8654 17.3861 15.7433C18.0001 15.6212 18.6364 15.6838 19.2147 15.9234C19.793 16.1629 20.2873 16.5686 20.6351 17.089C20.9829 17.6095 21.1685 18.2214 21.1685 18.8474C21.1682 19.6867 20.8347 20.4915 20.2412 21.085C19.6477 21.6785 18.8429 22.012 18.0036 22.0123Z" fill="white"/>
<path d="M24.2158 13.7725C24.2158 13.9979 24.149 14.2182 24.0238 14.4056C23.8985 14.593 23.7205 14.7391 23.5123 14.8254C23.3041 14.9116 23.0749 14.9342 22.8538 14.8902C22.6328 14.8463 22.4297 14.7377 22.2703 14.5783C22.1109 14.419 22.0024 14.2159 21.9584 13.9948C21.9144 13.7737 21.937 13.5446 22.0233 13.3363C22.1095 13.1281 22.2556 12.9501 22.443 12.8249C22.6304 12.6997 22.8508 12.6328 23.0762 12.6328C23.3784 12.6328 23.6683 12.7529 23.882 12.9666C24.0958 13.1803 24.2158 13.4702 24.2158 13.7725Z" fill="white"/>
</svg>
