<svg width="36" height="37" viewBox="0 0 36 37" fill="none" xmlns="http://www.w3.org/2000/svg">
<path d="M18 36.8398C27.9411 36.8398 36 28.781 36 18.8398C36 8.89872 27.9411 0.839844 18 0.839844C8.05888 0.839844 0 8.89872 0 18.8398C0 28.781 8.05888 36.8398 18 36.8398Z" fill="#333333"/>
<path d="M28.6283 27.2813V20.3138C28.6283 16.9061 27.895 14.2802 23.9103 14.2802C23.1621 14.2524 22.4204 14.4282 21.7643 14.7888C21.1082 15.1495 20.5623 15.6815 20.1848 16.3281H20.1292V14.598H16.3564V27.2803H20.2897V21.0009C20.2897 19.348 20.5983 17.7485 22.6554 17.7485C24.6724 17.7485 24.7033 19.6349 24.7033 21.1068V27.2783L28.6283 27.2813Z" fill="white"/>
<path d="M9.95605 14.5977H13.8903V27.2789H9.95605V14.5977Z" fill="white"/>
<path d="M11.9192 8.28518C11.465 8.28295 11.0204 8.41571 10.6419 8.66661C10.2633 8.91751 9.9678 9.27524 9.79292 9.69438C9.61804 10.1135 9.57164 10.5752 9.65962 11.0207C9.7476 11.4663 9.96599 11.8757 10.2871 12.1969C10.6081 12.5181 11.0174 12.7367 11.4629 12.8249C11.9084 12.913 12.3701 12.8669 12.7893 12.6922C13.2086 12.5175 13.5664 12.2221 13.8175 11.8437C14.0686 11.4652 14.2015 11.0207 14.1995 10.5666C14.1995 9.96168 13.9593 9.38156 13.5317 8.95375C13.1041 8.52594 12.524 8.28546 11.9192 8.28518Z" fill="white"/>
</svg>
