<svg width="27" height="28" viewBox="0 0 27 28" fill="none" xmlns="http://www.w3.org/2000/svg">
<path d="M14.5608 0.601432C11.9261 0.367066 9.28098 0.91931 6.96012 2.18835C4.63927 3.45738 2.74688 5.3862 1.52231 7.73083C0.297739 10.0755 -0.204005 12.7306 0.080538 15.3604C0.365081 17.9902 1.42313 20.4766 3.12086 22.505C4.81859 24.5334 7.07974 26.0128 9.61833 26.7561C12.1569 27.4993 14.8589 27.473 17.3825 26.6805C19.9062 25.888 22.1381 24.3649 23.7961 22.3038C25.454 20.2427 26.4635 17.7363 26.6968 15.1014C26.8521 13.3525 26.6613 11.5901 26.1355 9.91482C25.6096 8.23958 24.7589 6.68434 23.632 5.33788C22.505 3.99142 21.1239 2.88012 19.5675 2.06744C18.011 1.25475 16.3098 0.75661 14.5608 0.601432ZM12.5988 22.6534C12.5988 22.6534 7.97581 13.1354 8.24381 10.1384C8.37178 8.69935 9.06617 7.37007 10.1742 6.44299C11.2823 5.5159 12.7132 5.06697 14.1523 5.19494C15.5914 5.32291 16.9207 6.0173 17.8478 7.12536C18.7748 8.23342 19.2238 9.66435 19.0958 11.1034C18.8288 14.0984 12.5988 22.6534 12.5988 22.6534Z" fill="#FFC502"/>
</svg>
