<?xml version="1.0" encoding="UTF-8"?>
<svg id="_Слой_1" data-name="Слой 1" xmlns="http://www.w3.org/2000/svg" xmlns:xlink="http://www.w3.org/1999/xlink" viewBox="0 0 377.57 221.66">
  <defs>
    <style>
      .cls-13 {
        fill: none;
      }
    </style>
    <clipPath id="clippath">
      <path class="cls-13" d="M258.36,53.42c-18.24,8.95-33.18,23.61-42.49,41.65-3.5,6.78-6.21,14.05-7.99,21.67,9.8,41.82,47.33,72.96,92.13,72.96,7.46,0,14.71-.86,21.67-2.5-27.87-6.53-50.99-25.37-63.32-50.48-6.06-12.35-9.52-26.21-9.63-40.87,0-.26,0-.52,0-.78s0-.52,0-.78c.42-27.7,22.79-50.08,50.5-50.5-14.66,.12-28.52,3.57-40.86,9.63"/>
    </clipPath>
    <linearGradient id="blue-gradient" data-name="Безымянный градиент 3" x1="-2944.84" y1="2278.04" x2="-2944.55" y2="2278.04" gradientTransform="translate(-1146634.24 1482651.56) rotate(90) scale(503.46 -503.46)" gradientUnits="userSpaceOnUse">
      <stop offset="0" stop-color="#3b345d"/>
      <stop offset=".2" stop-color="#364681"/>
      <stop offset=".97" stop-color="#3479c5"/>
      <stop offset="1" stop-color="#3479c5"/>
    </linearGradient>
    <clipPath id="clippath-1">
      <path class="cls-13" d="M258.36,136.72c12.33,25.11,35.45,43.95,63.32,50.48,20.2-4.73,37.91-15.94,50.82-31.31,7.69-9.17,6.5-22.83-2.67-30.53-1.89-1.59-3.97-2.79-6.15-3.63-8.35-3.21-18.16-1-24.28,6.18-.03,.04-.07,.08-.1,.12-.02,.03-.05,.05-.07,.08-9.25,10.97-23.02,18-38.43,18.23-.26,0-.52,0-.78,0s-.52,0-.78,0c-27.7-.42-50.08-22.79-50.5-50.5,.12,14.66,3.57,28.52,9.63,40.87"/>
    </clipPath>
    <clipPath id="clippath-2">
      <path class="cls-13" d="M36.18,51.85c-12.79,8.04-20.36,17.25-25.87,25.42C5.56,84.3,0,95.42,0,101.56v66.47c0,11.97,9.7,21.67,21.67,21.67s21.67-9.7,21.67-21.67V46.62c-2.05,1.77-4.41,3.5-7.16,5.23"/>
    </clipPath>
    <linearGradient id="orange-gradient" data-name="Безымянный градиент 4" x1="-2947.6" y1="2276.11" x2="-2947.31" y2="2276.11" gradientTransform="translate(-1243972.81 -960712.56) rotate(-180) scale(422.1 -422.1)" gradientUnits="userSpaceOnUse">
      <stop offset="0" stop-color="#f8b863"/>
      <stop offset=".51" stop-color="#eb5f0f"/>
      <stop offset="1" stop-color="#df3e27"/>
    </linearGradient>
    <clipPath id="clippath-3">
      <path class="cls-13" d="M148.67,.45c-17.29,0-34.68,21.61-34.68,42.06,0,5.16,0,44.17,0,44.17,0-.28,0-.55,0-.83,.44-23.55,19.67-42.51,43.33-42.51h35.54c11.97,0,21.67-9.7,21.67-21.67S204.83,0,192.86,0l-44.19,.45Z"/>
    </clipPath>
    <linearGradient id="orange-gradient-2" data-name="Безымянный градиент 8" x1="-2936.9" y1="2271.72" x2="-2936.61" y2="2271.72" gradientTransform="translate(912197.9 705673.79) scale(310.57 -310.57)" gradientUnits="userSpaceOnUse">
      <stop offset="0" stop-color="#f8b863"/>
      <stop offset=".46" stop-color="#eb5f0f"/>
      <stop offset="1" stop-color="#df3e27"/>
    </linearGradient>
    <clipPath id="clippath-4">
      <path class="cls-13" d="M144.97,134.13c-5.14,5.34-11.38,9.94-17.7,13.91-8.63,5.42-13.29,10.99-13.29,19.99,0,11.97,9.7,21.67,21.67,21.67s21.67-9.7,21.67-21.67v-61.25c0,10.79-5.08,19.81-12.36,27.36"/>
    </clipPath>
    <linearGradient id="orange-gradient-3" data-name="Безымянный градиент 6" x1="-2945.21" y1="2274.22" x2="-2944.92" y2="2274.22" gradientTransform="translate(-2429343.2 -1876116.61) rotate(180) scale(824.98 -824.98)" gradientUnits="userSpaceOnUse">
      <stop offset="0" stop-color="#f8b863"/>
      <stop offset=".47" stop-color="#eb5f0f"/>
      <stop offset=".97" stop-color="#df3e27"/>
      <stop offset="1" stop-color="#df3e27"/>
    </linearGradient>
    <clipPath id="clippath-5">
      <path class="cls-13" d="M207.88,73.4c-1.63,6.96-2.5,14.21-2.5,21.67s.86,14.71,2.5,21.67c1.78-7.62,4.49-14.89,7.99-21.67,9.31-18.04,24.25-32.7,42.49-41.65,12.35-6.06,26.21-9.51,40.86-9.63,.26,0,.52,0,.78,0s.52,0,.78,0c15.42,.23,29.19,7.26,38.43,18.23,.02,.03,.05,.05,.07,.08,.03,.04,.07,.08,.1,.12,6.11,7.18,15.93,9.39,24.28,6.18,2.18-.84,4.26-2.05,6.15-3.63,9.17-7.69,10.36-21.36,2.67-30.53-12.91-15.37-30.62-26.58-50.82-31.31-6.96-1.63-14.21-2.5-21.67-2.5-44.8,0-82.33,31.14-92.13,72.96"/>
    </clipPath>
    <linearGradient id="orange-gradient-4" data-name="Безымянный градиент 8" x1="-2936.2" y1="2278.17" x2="-2935.91" y2="2278.17" gradientTransform="translate(799284.39 620143.97) scale(272.2 -272.2)" xlink:href="#orange-gradient-2"/>
    <clipPath id="clippath-6">
      <path class="cls-13" d="M78.45,.45c-11.97,0-21.67,9.7-21.67,21.67s9.7,21.67,21.67,21.67h8.55c20.03,0,14.47-27.38,35.65-43.34h-44.21Z"/>
    </clipPath>
    <clipPath id="clippath-7">
      <path class="cls-13" d="M0,22.12v50.04c5.14-10.35,14.8-20.46,30.06-30.05,8.63-5.42,13.29-10.99,13.29-19.99C43.34,10.15,33.64,.45,21.67,.45S0,10.15,0,22.12"/>
    </clipPath>
    <linearGradient id="orange-gradient-5" data-name="Безымянный градиент 8" x1="-2949.77" y1="2279.49" x2="-2949.48" y2="2279.49" gradientTransform="translate(-824299.32 -637000.92) rotate(-180) scale(279.47 -279.47)" xlink:href="#orange-gradient-2"/>
    <clipPath id="clippath-8">
      <path class="cls-13" d="M113.99,85.85c0,.28,0,.55,0,.83v81.35c0-8.99,4.66-14.57,13.29-19.99,6.32-3.97,12.56-8.57,17.7-13.91,7.28-7.55,12.36-16.56,12.36-27.36V43.34c-23.66,0-42.89,18.95-43.33,42.51"/>
    </clipPath>
    <linearGradient id="purple-gradient" data-name="Безымянный градиենտ 9" x1="-2944.56" y1="2280.57" x2="-2944.27" y2="2280.57" gradientTransform="translate(-798744.43 1031530.66) rotate(90) scale(350.3 -350.3)" gradientUnits="userSpaceOnUse">
      <stop offset="0" stop-color="#323877"/>
      <stop offset="0" stop-color="#313978"/>
      <stop offset=".23" stop-color="#2c62a1"/>
      <stop offset=".53" stop-color="#296fb2"/>
      <stop offset=".81" stop-color="#2c6099"/>
      <stop offset="1" stop-color="#3f4691"/>
    </linearGradient>
  </defs>
  <g>
    <g clip-path="url(#clippath)">
      <rect x="195.02" y="34.28" width="139.53" height="164.93" transform="translate(-17.4 52.63) rotate(-10.99)" fill="url(#blue-gradient)"/>
    </g>
    <g clip-path="url(#clippath-1)">
      <rect x="247.26" y="93.71" width="134.41" height="95.64" transform="translate(-4.5 10.47) rotate(-1.89)" fill="url(#blue-gradient)"/>
    </g>
    <g clip-path="url(#clippath-2)">
      <rect x="-8.12" y="44.6" width="59.58" height="147.13" transform="translate(-13.5 3.29) rotate(-6.63)" fill="url(#blue-gradient)"/>
    </g>
    <g clip-path="url(#clippath-3)">
      <rect x="98.16" y="-22.93" width="132.2" height="132.54" transform="translate(19 131.42) rotate(-46.01)" fill="url(#orange-gradient)"/>
    </g>
    <g clip-path="url(#clippath-4)">
      <rect x="88.87" y="109.64" width="93.56" height="77.2" transform="translate(-58.92 198.42) rotate(-62)" fill="url(#orange-gradient-2)"/>
    </g>
    <g clip-path="url(#clippath-5)">
      <rect x="190.6" y="-26.37" width="204.38" height="169.93" transform="translate(-2.06 105.71) rotate(-20.4)" fill="url(#orange-gradient-3)"/>
    </g>
    <g clip-path="url(#clippath-6)">
      <rect x="56.78" y=".45" width="65.88" height="43.34" fill="url(#orange-gradient-4)"/>
    </g>
    <g clip-path="url(#clippath-7)">
      <rect x="-20.21" y="-.28" width="83.76" height="73.17" transform="translate(-20.6 37.15) rotate(-60.31)" fill="url(#orange-gradient-5)"/>
    </g>
    <g clip-path="url(#clippath-8)">
      <rect x="94.88" y="39.68" width="81.55" height="132.01" transform="translate(-27 49.89) rotate(-18.99)" fill="url(#purple-gradient)"/>
    </g>
  </g>
  <g>
    <path d="M1.16,203.64h.15c.51,0,.92,.41,.92,.92v15.87c0,.51-.41,.92-.92,.92h-.15c-.51,0-.92-.41-.92-.92v-15.87c0-.51,.41-.92,.92-.92"/>
    <path d="M12.11,205.49H7.08c-.51,0-.92-.41-.92-.92s.41-.92,.92-.92h12.07c.51,0,.92,.41,.92,.92s-.41,.92-.92,.92h-5.02v14.95c0,.51-.41,.92-.92,.92h-.18c-.51,0-.92-.41-.92-.92v-14.95Z"/>
    <path d="M30.63,212.55v-.05c0-5.01,3.75-9.16,8.96-9.16,2.78,0,4.59,.85,6.18,2.16,.41,.34,.45,.95,.09,1.34l-.11,.12c-.33,.35-.88,.39-1.25,.08-1.34-1.11-2.86-1.86-4.93-1.86-3.92,0-6.86,3.19-6.86,7.26v.05c0,4.1,2.96,7.32,6.86,7.32,2.13,0,3.61-.72,5.09-1.98,.37-.31,.91-.31,1.25,.03l.02,.02c.38,.37,.36,.99-.04,1.35-1.67,1.49-3.57,2.43-6.37,2.43-5.11,0-8.88-4.02-8.88-9.11"/>
    <path d="M51.02,203.64h.15c.51,0,.92,.41,.92,.92v14.95h9.05c.51,0,.92,.41,.92,.92s-.41,.92-.92,.92h-11.05v-16.79c0-.51,.41-.92,.92-.92"/>
    <path d="M64.98,213.94v-9.3c0-.55,.45-1,1-1s1,.45,1,1v9.18c0,3.82,2.05,5.97,5.42,5.97s5.34-1.97,5.34-5.85v-9.3c0-.55,.45-1,1-1s1,.45,1,1v9.15c0,5.16-2.96,7.85-7.39,7.85s-7.37-2.68-7.37-7.69"/>
    <path d="M84.47,203.64h7.54c2.02,0,3.62,.58,4.63,1.57,.73,.76,1.14,1.7,1.14,2.83v.05c0,2.3-1.42,3.49-2.81,4.1,2.1,.63,3.8,1.85,3.8,4.28v.05c0,3.04-2.56,4.83-6.43,4.83h-7.87v-17.72Zm11.29,4.68c0-1.75-1.39-2.89-3.92-2.89h-5.39v6.1h5.24c2.4,0,4.08-1.09,4.08-3.16v-.05Zm-3.72,4.99h-5.59v6.25h5.95c2.68,0,4.35-1.19,4.35-3.16v-.05c0-1.92-1.62-3.04-4.71-3.04"/>
    <path d="M111.51,203.64h0c.55,0,1,.45,1,1v15.72c0,.55-.45,1-1,1s-1-.45-1-1v-15.72c0-.55,.45-1,1-1"/>
    <path d="M117.7,203.64h1.87l11.16,14.2v-13.23c0-.54,.44-.97,.97-.97s.97,.44,.97,.97v16.74h-1.59l-11.44-14.53v13.55c0,.54-.44,.97-.97,.97s-.97-.44-.97-.97v-16.74Z"/>
    <path d="M137.7,203.64h1.87l11.16,14.2v-13.23c0-.54,.44-.97,.97-.97s.97,.44,.97,.97v16.74h-1.59l-11.44-14.53v13.55c0,.54-.44,.97-.97,.97s-.97-.44-.97-.97v-16.74Z"/>
    <path d="M156.91,212.55v-.05c0-4.89,3.67-9.16,9.06-9.16s9.01,4.23,9.01,9.11v.05c0,4.89-3.67,9.16-9.06,9.16s-9.01-4.23-9.01-9.11m16,0v-.05c0-4.02-2.94-7.32-6.99-7.32s-6.94,3.24-6.94,7.26v.05c0,4.02,2.94,7.32,6.99,7.32s6.94-3.24,6.94-7.26"/>
    <path d="M178.06,203.64h.19c.38,0,.72,.23,.86,.58l6.06,14.69,6.09-14.69c.14-.35,.48-.58,.86-.58h.12c.67,0,1.12,.68,.86,1.3l-7.06,16.55h-1.77l-7.06-16.55c-.26-.62,.19-1.3,.86-1.3"/>
    <path d="M201.17,203.51h1.87l7.48,16.53c.28,.62-.17,1.32-.85,1.32h-.1c-.37,0-.7-.22-.85-.55l-1.83-4.13h-9.64l-1.85,4.13c-.15,.34-.48,.55-.85,.55-.68,0-1.13-.7-.85-1.32l7.48-16.53Zm4.94,11.34l-4.02-9.01-4.05,9.01h8.07Z"/>
    <path d="M217.02,205.49h-5.02c-.51,0-.92-.41-.92-.92s.41-.92,.92-.92h12.07c.51,0,.92,.41,.92,.92s-.41,.92-.92,.92h-5.02v14.95c0,.51-.41,.92-.92,.92h-.18c-.51,0-.92-.41-.92-.92v-14.95Z"/>
    <path d="M229.84,203.64h.15c.51,0,.92,.41,.92,.92v15.87c0,.51-.41,.92-.92,.92h-.15c-.51,0-.92-.41-.92-.92v-15.87c0-.51,.41-.92,.92-.92"/>
    <path d="M235.32,212.55v-.05c0-4.89,3.67-9.16,9.06-9.16s9.01,4.23,9.01,9.11v.05c0,4.89-3.67,9.16-9.06,9.16s-9.01-4.23-9.01-9.11m16,0v-.05c0-4.02-2.94-7.32-6.99-7.32s-6.94,3.24-6.94,7.26v.05c0,4.02,2.94,7.32,6.99,7.32s6.94-3.24,6.94-7.26"/>
    <path d="M257.62,203.64h1.87l11.16,14.2v-13.28c0-.51,.41-.92,.92-.92h.1c.51,0,.92,.41,.92,.92v16.79h-1.59l-11.44-14.53v13.61c0,.51-.41,.92-.92,.92h-.1c-.51,0-.92-.41-.92-.92v-16.79Z"/>
    <path d="M284.42,212.55v-.05c0-4.86,3.57-9.16,8.88-9.16,2.56,0,4.28,.63,5.84,1.75,.43,.31,.51,.91,.16,1.32l-.12,.14c-.31,.36-.84,.42-1.22,.14-1.21-.9-2.62-1.5-4.74-1.5-3.92,0-6.73,3.32-6.73,7.26v.05c0,4.23,2.71,7.37,7.01,7.37,2.02,0,3.9-.78,5.11-1.77v-4.4h-4.49c-.5,0-.9-.4-.9-.9s.4-.9,.9-.9h6.42v7.06c-1.65,1.47-4.13,2.71-7.11,2.71-5.57,0-9.01-4.05-9.01-9.11"/>
    <path d="M305.05,203.64h7.62c2.18,0,3.92,.66,5.04,1.77,.86,.86,1.37,2.1,1.37,3.49v.05c0,2.94-2.02,4.66-4.81,5.16l4.26,5.67c.49,.65,.02,1.57-.78,1.57-.31,0-.6-.15-.79-.39l-4.84-6.49h-5.06v5.9c0,.54-.44,.98-.98,.98h-.04c-.54,0-.98-.44-.98-.98v-16.74Zm7.44,9.04c2.66,0,4.56-1.37,4.56-3.65v-.05c0-2.18-1.67-3.49-4.53-3.49h-5.47v7.19h5.44Z"/>
    <path d="M322.56,212.55v-.05c0-4.89,3.67-9.16,9.06-9.16s9.01,4.23,9.01,9.11v.05c0,4.89-3.67,9.16-9.06,9.16s-9.01-4.23-9.01-9.11m16,0v-.05c0-4.02-2.94-7.32-6.99-7.32s-6.94,3.24-6.94,7.26v.05c0,4.02,2.94,7.32,6.99,7.32s6.94-3.24,6.94-7.26"/>
    <path d="M344.58,213.94v-9.3c0-.55,.45-1,1-1h0c.55,0,1,.45,1,1v9.18c0,3.82,2.05,5.97,5.42,5.97s5.34-1.97,5.34-5.85v-9.3c0-.55,.45-1,1-1s1,.45,1,1v9.15c0,5.16-2.96,7.85-7.39,7.85s-7.37-2.68-7.37-7.69"/>
    <path d="M364.07,203.64h6.63c4,0,6.63,2.13,6.63,5.62v.05c0,3.82-3.19,5.8-6.96,5.8h-4.3v5.25c0,.55-.45,1-1,1h0c-.55,0-1-.45-1-1v-16.72Zm6.38,9.64c2.94,0,4.86-1.57,4.86-3.9v-.05c0-2.53-1.9-3.85-4.76-3.85h-4.48v7.8h4.38Z"/>
  </g>
</svg>
