<svg width="38" height="39" viewBox="0 0 38 39" fill="none" xmlns="http://www.w3.org/2000/svg">
<path d="M17.2188 24.334C18.8583 24.334 20.1875 23.0048 20.1875 21.3652C20.1875 19.7256 18.8583 18.3965 17.2188 18.3965C15.5792 18.3965 14.25 19.7256 14.25 21.3652C14.25 23.0048 15.5792 24.334 17.2188 24.334Z" stroke="black" stroke-width="1.5" stroke-linecap="round" stroke-linejoin="round"/>
<path d="M4.75 33.8348L15.1258 23.459" stroke="black" stroke-width="1.5" stroke-linecap="round" stroke-linejoin="round"/>
<path d="M4.75 33.834L25.457 30.3902C25.6614 30.3554 25.8529 30.2669 26.0119 30.1339C26.171 30.001 26.292 29.8282 26.3625 29.6332L29.6875 20.7715L17.8125 8.89648L8.95078 12.2215C8.7555 12.2959 8.58298 12.4199 8.45023 12.5813C8.31748 12.7426 8.22908 12.9358 8.19375 13.1418L4.75 33.834Z" stroke="black" stroke-width="1.5" stroke-linecap="round" stroke-linejoin="round"/>
<path d="M29.6875 20.7718L33.5914 16.8679C33.7036 16.7574 33.7927 16.6257 33.8535 16.4805C33.9143 16.3352 33.9457 16.1793 33.9457 16.0218C33.9457 15.8644 33.9143 15.7085 33.8535 15.5632C33.7927 15.418 33.7036 15.2862 33.5914 15.1757L23.4086 4.99294C23.2981 4.88074 23.1664 4.79163 23.0211 4.73081C22.8759 4.66999 22.72 4.63867 22.5625 4.63867C22.405 4.63867 22.2491 4.66999 22.1039 4.73081C21.9586 4.79163 21.8269 4.88074 21.7164 4.99294L17.8125 8.89684" stroke="black" stroke-width="1.5" stroke-linecap="round" stroke-linejoin="round"/>
</svg>
