<svg width="77" height="77" viewBox="0 0 77 77" fill="none" xmlns="http://www.w3.org/2000/svg">
<path fill-rule="evenodd" clip-rule="evenodd" d="M38.5 77C43.5559 77 48.5623 76.0042 53.2333 74.0694C57.9043 72.1346 62.1486 69.2987 65.7236 65.7236C69.2987 62.1486 72.1346 57.9043 74.0694 53.2333C76.0042 48.5623 77 43.5559 77 38.5C77 33.4441 76.0042 28.4377 74.0694 23.7667C72.1346 19.0957 69.2987 14.8514 65.7236 11.2764C62.1486 7.70133 57.9043 4.86544 53.2333 2.93064C48.5623 0.995831 43.5559 -7.53387e-08 38.5 0C28.2892 1.52153e-07 18.4965 4.05624 11.2764 11.2764C4.05624 18.4965 0 28.2892 0 38.5C0 48.7108 4.05624 58.5035 11.2764 65.7236C18.4965 72.9438 28.2892 77 38.5 77ZM33.2939 21.3461L57.4377 34.7612C58.1043 35.1318 58.6596 35.6739 59.0463 36.3312C59.4329 36.9886 59.6368 37.7374 59.6368 38.5C59.6368 39.2626 59.4329 40.0114 59.0463 40.6688C58.6596 41.3261 58.1043 41.8682 57.4377 42.2388L33.2939 55.6539C32.5122 56.0884 31.6304 56.3112 30.7361 56.3C29.8417 56.2889 28.9658 56.0443 28.1951 55.5904C27.4244 55.1365 26.7857 54.4892 26.3422 53.7125C25.8987 52.9358 25.6658 52.0566 25.6667 51.1622V25.8378C25.6658 24.9434 25.8987 24.0642 26.3422 23.2875C26.7857 22.5108 27.4244 21.8635 28.1951 21.4096C28.9658 20.9557 29.8417 20.7111 30.7361 20.7C31.6304 20.6888 32.5122 20.9116 33.2939 21.3461Z" fill="black"/>
</svg>
