<svg width="27" height="28" viewBox="0 0 27 28" fill="none" xmlns="http://www.w3.org/2000/svg">
<path d="M14.5614 1.01359C11.9266 0.779127 9.28152 1.33124 6.96056 2.6001C4.6396 3.86896 2.74703 5.79758 1.52218 8.14207C0.297324 10.4866 -0.204783 13.1416 0.0793358 15.7715C0.363455 18.4013 1.42105 20.8879 3.11837 22.9167C4.81569 24.9454 7.07651 26.4254 9.61492 27.1692C12.1533 27.9131 14.8553 27.8875 17.3792 27.0958C19.9031 26.304 22.1355 24.7816 23.7941 22.721C25.4527 20.6605 26.4631 18.1544 26.6974 15.5196C26.8533 13.7702 26.6631 12.0072 26.1376 10.3313C25.6121 8.65546 24.7615 7.09953 23.6345 5.75245C22.5075 4.40537 21.1262 3.29352 19.5694 2.48041C18.0126 1.66731 16.3109 1.16887 14.5614 1.01359ZM19.8614 20.8336C18.9403 21.6447 17.7536 22.0895 16.5264 22.0836C15.5717 22.049 14.6396 21.783 13.8104 21.3086C12.7752 20.7337 11.8315 20.0077 11.0104 19.1546C10.4974 18.6356 10.0034 18.0886 9.5024 17.5546C8.54042 16.4126 7.71671 15.1609 7.04839 13.8256C6.53038 12.8125 6.25382 11.6933 6.24038 10.5556C6.24686 9.92842 6.37857 9.30883 6.62774 8.73322C6.8769 8.15761 7.23853 7.63755 7.6914 7.20359C7.89635 6.98419 8.12855 6.79196 8.38238 6.6316C8.67592 6.46944 9.02127 6.42857 9.34456 6.51771C9.66785 6.60684 9.94343 6.81891 10.1124 7.10859C10.5584 7.86859 10.9984 8.63259 11.4504 9.38859C11.576 9.59338 11.6575 9.82209 11.6898 10.0601C11.7221 10.2982 11.7045 10.5403 11.6381 10.7712C11.5717 11.002 11.4579 11.2165 11.304 11.401C11.1502 11.5854 10.9596 11.7358 10.7444 11.8426C10.4644 11.9896 10.1934 12.1506 9.91738 12.3076C9.83487 12.3532 9.7659 12.4198 9.7174 12.5006C9.5914 12.2786 9.4644 12.0506 9.3384 11.8286L9.2044 11.5836C9.15479 11.4988 9.07403 11.4367 8.97933 11.4106C8.88463 11.3844 8.78347 11.3963 8.69738 11.4436C8.61111 11.4913 8.54729 11.5712 8.51992 11.6659C8.49254 11.7606 8.50385 11.8622 8.55138 11.9486L8.6874 12.1876C9.0744 12.8806 9.4724 13.5966 9.9164 14.2796C10.8148 15.6613 11.8872 16.9217 13.1074 18.0296C13.5744 18.4526 14.0724 18.8606 14.5544 19.2506C14.5921 19.2834 14.636 19.3083 14.6836 19.3239C14.7311 19.3394 14.7813 19.3452 14.8311 19.3409C14.8809 19.3367 14.9294 19.3224 14.9736 19.299C15.0178 19.2757 15.0569 19.2437 15.0885 19.2049C15.1201 19.1661 15.1435 19.1214 15.1575 19.0734C15.1715 19.0254 15.1756 18.975 15.1697 18.9254C15.1638 18.8757 15.148 18.8278 15.1232 18.7843C15.0984 18.7409 15.0652 18.7029 15.0254 18.6726C14.8514 18.5366 14.6804 18.3946 14.5084 18.2536C14.6136 18.2263 14.7062 18.1634 14.7704 18.0756C14.9844 17.8176 15.2034 17.5606 15.4174 17.3026C15.5637 17.1185 15.7463 16.9664 15.9539 16.8558C16.1614 16.7452 16.3895 16.6785 16.624 16.6597C16.8584 16.641 17.0942 16.6706 17.3167 16.7468C17.5392 16.823 17.7436 16.9441 17.9174 17.1026C18.5624 17.6476 19.2174 18.2026 19.8664 18.7416C20.0276 18.8645 20.1581 19.023 20.2477 19.2048C20.3373 19.3866 20.3836 19.5867 20.3829 19.7893C20.3822 19.992 20.3346 20.1918 20.2438 20.373C20.153 20.5541 20.0214 20.7118 19.8594 20.8336H19.8614Z" fill="#FFC502"/>
</svg>
