<svg width="36" height="37" viewBox="0 0 36 37" fill="none" xmlns="http://www.w3.org/2000/svg">
<path d="M18 36.8398C27.9435 36.8398 36 28.7833 36 18.8398C36 8.89634 27.9435 0.839844 18 0.839844C8.0565 0.839844 0 8.89634 0 18.8398C0 28.7833 8.0565 36.8398 18 36.8398ZM8.2365 18.4498L25.5915 11.7583C26.397 11.4673 27.1005 11.9548 26.8395 13.1728L26.841 13.1713L23.886 27.0928C23.667 28.0798 23.0805 28.3198 22.26 27.8548L17.76 24.5383L15.5895 26.6293C15.3495 26.8693 15.147 27.0718 14.682 27.0718L15.0015 22.4923L23.3415 14.9578C23.7045 14.6383 23.2605 14.4583 22.782 14.7763L12.4755 21.2653L8.0325 19.8793C7.068 19.5733 7.047 18.9148 8.2365 18.4498Z" fill="#333333"/>
</svg>
